<svg width="201" height="205" viewBox="0 0 201 205" fill="none" xmlns="http://www.w3.org/2000/svg">
<path fill-rule="evenodd" clip-rule="evenodd" d="M197.815 96.7392L152.399 13.5569C146.982 3.57201 135.702 -1.69881 124.571 0.49118L32.5884 18.7906C21.6054 20.9805 13.2569 29.9632 11.884 41.0987L0.196016 135.936C-1.17686 147.072 4.75989 157.836 14.9266 162.624L99.6737 202.527C109.952 207.352 122.159 204.977 129.84 196.625L194.142 126.805C201.674 118.602 203.159 106.501 197.815 96.7392Z" fill="url(#paint0_linear_5007_25)"/>
<path d="M41.4864 143.551V67.9505H73.4064C74.1414 67.9505 75.1214 67.9855 76.3464 68.0555C77.6064 68.0905 78.7264 68.1955 79.7064 68.3705C84.2214 69.0705 87.9139 70.558 90.7839 72.833C93.6889 75.108 95.8239 77.978 97.1889 81.443C98.5539 84.873 99.2364 88.7055 99.2364 92.9405C99.2364 99.2755 97.6614 104.701 94.5114 109.216C91.3614 113.696 86.4264 116.461 79.7064 117.511L73.4064 117.931H55.7664V143.551H41.4864ZM84.1164 143.551L69.2064 112.786L83.9064 109.951L100.286 143.551H84.1164ZM55.7664 104.596H72.7764C73.5114 104.596 74.3164 104.561 75.1914 104.491C76.0664 104.421 76.8714 104.281 77.6064 104.071C79.5314 103.546 81.0189 102.671 82.0689 101.446C83.1189 100.186 83.8364 98.803 84.2214 97.298C84.6414 95.758 84.8514 94.3055 84.8514 92.9405C84.8514 91.5755 84.6414 90.1405 84.2214 88.6355C83.8364 87.0955 83.1189 85.713 82.0689 84.488C81.0189 83.228 79.5314 82.3355 77.6064 81.8105C76.8714 81.6005 76.0664 81.4605 75.1914 81.3905C74.3164 81.3205 73.5114 81.2855 72.7764 81.2855H55.7664V104.596ZM98.1781 143.551V67.9505H112.458V130.216H145.008V143.551H98.1781Z" fill="white"/>
<path d="M136.015 143.551V112.786L110.185 67.9505H126.88L143.26 96.4055L159.64 67.9505H176.335L150.505 112.786V143.551H136.015Z" fill="white"/>
<defs>
<linearGradient id="paint0_linear_5007_25" x1="158.947" y1="26.8692" x2="20.3628" y2="176.641" gradientUnits="userSpaceOnUse">
<stop offset="0.24" stop-color="#9013FE"/>
<stop offset="1" stop-color="#1E90FF"/>
</linearGradient>
</defs>
</svg>
